<?xml version="1.0" encoding="utf-8"?>
<!-- Generator: Adobe Illustrator 17.0.0, SVG Export Plug-In . SVG Version: 6.00 Build 0)  -->
<!DOCTYPE svg PUBLIC "-//W3C//DTD SVG 1.1//EN" "http://www.w3.org/Graphics/SVG/1.1/DTD/svg11.dtd">
<svg version="1.1" id="Calque_1" xmlns="http://www.w3.org/2000/svg" xmlns:xlink="http://www.w3.org/1999/xlink" x="0px" y="0px"
	 width="480px" height="640px" viewBox="0 0 480 640" enable-background="new 0 0 480 640" xml:space="preserve">
<g>
	<path fill="#9B6632" d="M121.8,51.2c0,0,3-1,0-7s-5.4-6.4-5.4-6.4s-1.9-0.1-4.2-3.1c-2.3-3.1-15.3-3.8-16.4-3.8s-18.2,0.9-18.7,0.8
		c-0.5-0.1-8.1-0.7-11,0.5c-2.9,1.2-12.9,7.6-13.8,8.8s-2.7,0.9-3.6,1.3s-6.5,8-7.9,10.7c-1.4,2.8-4.5,11.4-4,14.5
		s5.8,18.7,10.8,21.1c5,2.4,1.4,0,2.3,1.5c0.9,1.5,5.2,2.5,8.6,3.4s11.3,2.3,15.8,1.6c4.5-0.7,6.3-1.5,7.4-1.5s3.8-0.4,6.8-1.2
		c3.1-0.8,3.6-2.1,5.2-2.1s7-4.1,7.7-4.9s3.2-1.2,3.8-1.2s7.6-2.1,8.3-4.2s4.1-8.1,4.1-11.7c0-3.6-0.5-6,0.2-7.2
		C118.6,60,121.5,53.1,121.8,51.2z"/>
	<path d="M95.1,84.4c0,0,1.9-2.9,0-4.1s-3-0.8-4.3-1.6c-1.3-0.8-2.9-1.6-5.7,0c-2.2,1.3-2.7,3.4-2.7,3.4s1.2,4.5,4.5,4.1
		S95.1,84.8,95.1,84.4z"/>
	<path d="M83,63.9c0,0-3.2-0.8-2.5-2c2-3.2,4.4-1.2,4.4-1.2S86.2,63.9,83,63.9z"/>
	<path d="M77.3,42.4c0,0-5,1.4-4.4,0.2c1.7-3.1,7-2.4,7-2.4S80.2,42.4,77.3,42.4z"/>
	<path d="M103.4,60.1c0,0,3.5,0.2,3.5,0.8c0,0.6,1.1,1.1,1.1,1.1v1.9c0,0,3-3,2.2-3s-2.9,0-3.3-0.8
		C106.5,59.4,104.2,58.7,103.4,60.1z"/>
	<path d="M57.4,72.5c0,0-1.8-1.6-1.8-2.5s-1.1-1-1.7-1s-1.4,0-1.4,0s-0.2,1.6,0.9,2.6S56.2,72.8,57.4,72.5z"/>
</g>
</svg>
