<?xml version="1.0" encoding="utf-8"?>
<!-- Generator: Adobe Illustrator 17.0.0, SVG Export Plug-In . SVG Version: 6.00 Build 0)  -->
<!DOCTYPE svg PUBLIC "-//W3C//DTD SVG 1.1//EN" "http://www.w3.org/Graphics/SVG/1.1/DTD/svg11.dtd">
<svg version="1.1" id="Calque_1" xmlns="http://www.w3.org/2000/svg" xmlns:xlink="http://www.w3.org/1999/xlink" x="0px" y="0px"
	 width="160.1px" height="161.8px" viewBox="0 0 160.1 161.8" enable-background="new 0 0 160.1 161.8" xml:space="preserve">
<g>
	<path fill="#9B6632" d="M157.6,51c0,0,5.5-2.5,0-17.5s-10-16-10-16s-3.5-0.2-7.8-7.8C135.5,2,111.5,0,109.5,0S75.8,2.3,74.8,2
		s-15-1.7-20.3,1.3s-24,19-25.7,22.2s-5,2.2-6.7,3.2c-1.7,1-12,20-14.7,27S-0.9,84.3,0.1,92s10.7,47,20,53s2.7,0,4.3,3.7
		c1.7,3.7,9.7,6.3,16,8.7c6.3,2.3,21,5.7,29.3,4c8.3-1.7,11.7-3.7,13.7-3.7s7-1,12.7-3c5.7-2,6.7-5.3,9.7-5.3s13-10.3,14.3-12.3
		c1.3-2,6-3,7-3c1,0,14-5.3,15.3-10.7s7.7-20.3,7.7-29.3s-1-15,0.3-18S157.1,55.7,157.6,51z"/>
	<path d="M108.1,134.4c0,0,3.5-7.4,0-10.4s-5.5-2-8-4s-5.4-4.1-10.5,0c-4.1,3.3-4.9,8.6-4.9,8.6s2.3,11.3,8.4,10.4
		C99.1,138,108.2,135.4,108.1,134.4z"/>
	<path d="M85.7,83c0,0-6-2-4.6-5c3.6-8,8.1-3,8.1-3S91.7,83,85.7,83z"/>
	<path d="M75.2,29c0,0-9.3,3.5-8.1,0.6c3.2-7.9,12.9-6.1,12.9-6.1S80.5,29,75.2,29z"/>
	<path d="M123.6,73.5c0,0,6.8,0.5,6.8,2s2.3,2.7,2.3,2.7V83c0,0,5.3-7.5,3.8-7.5s-5.6-0.1-6.2-2C129.5,71.5,125.1,69.9,123.6,73.5z"
		/>
	<path d="M38.3,104.5c0,0-3.4-3.8-3.4-6.2c0-2.3-2.1-2.3-3.1-2.3s-2.7,0-2.7,0s-0.3,4,1.7,6.3C32.8,104.7,36.1,105.3,38.3,104.5z"/>
</g>
</svg>
