<?xml version="1.0" encoding="utf-8"?>
<!-- Generator: Adobe Illustrator 17.0.0, SVG Export Plug-In . SVG Version: 6.00 Build 0)  -->
<!DOCTYPE svg PUBLIC "-//W3C//DTD SVG 1.1//EN" "http://www.w3.org/Graphics/SVG/1.1/DTD/svg11.dtd">
<svg version="1.1" id="Calque_1" xmlns="http://www.w3.org/2000/svg" xmlns:xlink="http://www.w3.org/1999/xlink" x="0px" y="0px"
	 width="77.2px" height="68.8px" viewBox="0 0 77.2 68.8" enable-background="new 0 0 77.2 68.8" xml:space="preserve">
<g>
	<path fill="#9B6632" d="M31.3,66.6c-0.1-0.2,4-0.7,4-0.7s-0.3-1.3-0.2-1.3c0.1,0,2.3-7,2.3-7l2.2-0.4l-7.8-4c0,0,8-7.9,9.6-8.4
		c1.6-0.5,1.8-0.3,1.8-0.3l0.5,0.5c0,0-0.6,1.5,0.2,0.8c0.7-0.7,2.6-0.5,2.6-0.5l-0.2-0.9l0.6-2.3l-0.2-1.1l2.5,0.7
		c0,0-0.2,0.6,0.4,1.1c0.6,0.4,0.4,0.3,0.3,0.3l1.2-0.2L51,41.9L50.8,41l-0.2-1.5l3-0.3c0,0,0.1,0.3,0.2,1.3c0.2,1,2.6-0.4,2.6-0.4
		l-1.7-0.4l-0.3-1.7l2.9-0.2c0,0,0.3-0.1,1.1,1l1.5-1.1l1.2-1.1l2.9,3.5l1.1,0.9l1.4-0.1c0,0,0,0,0.9-1c0.9-1,2.1-0.3,2.2,0.4
		c0,0.2,0.4,0.2,0.9,0.1c0.4-3.8,7,2.9,6.9,2.4c-0.2-0.9-3.7-15.1-3.6-15.6c0.1-0.5-0.4-6.9-2.2-9.1c-1.8-2.2-10.5-9.4-12-9.9
		c-1.6-0.5-1.4-2.1-2-2.8c-0.6-0.7-10-3.9-13.4-4.6c-3.4-0.7-13.6-1.6-17-0.5C23.6,1.5,6.5,9,4.5,13.7c-0.4,1.1-0.7,1.7-0.8,2.1
		c-0.1,0-0.2,0-0.5,0.2c-1.5,1-2.1,4.9-2.7,7.9s-0.9,10,0.5,13.6s2.6,5,2.7,5.9c0.2,0.9,1,3.1,2.3,5.5s2.9,2.6,3.2,4
		c0.2,1.4,5.7,5.1,6.7,5.5c1,0.4,1.8,2.5,1.9,2.9c0.1,0.5,3.5,5.9,6,6.1c2.5,0.2,9.8,1.9,13.9,1.2c1.1-0.2-6.8-1.4-5.9-1.6
		C31.5,66.8,31.3,66.7,31.3,66.6z"/>
	<path d="M16.2,52.8c0,0,3.6,1,4.7-0.8c1.1-1.8,0.5-2.6,1.2-3.9c0.7-1.3,1.4-2.8-0.8-4.8c-1.8-1.6-4.3-1.6-4.3-1.6s-4.9,1.9-4.1,4.6
		C13.8,49,15.7,52.9,16.2,52.8z"/>
	<path d="M37.7,38.6c0,0,0.5-2.9,1.9-2.5c3.9,1,2,3.4,2,3.4S38.2,41.3,37.7,38.6z"/>
	<path d="M61.4,29.7c0,0-2.3-3.9-0.9-3.6c3.8,0.8,3.8,5.4,3.8,5.4S61.8,32,61.4,29.7z"/>
	<path d="M37,48.1c0,0-13.9,4-1.4,9.4c0.6,0.3-1,1.4-1,1.4l-2.2,0.4c0,0,4.8-4.4,4.7-5.1s-0.4-2.6,0.4-3.1S38.7,48.5,37,48.1z"/>
	<path d="M24.3,18.8c0,0,1.3-1.8,2.4-2c1.1-0.2,0.7-1.1,0.6-1.5S27.1,14,27.1,14s-1.7,0.1-2.6,1.2S23.8,17.8,24.3,18.8z"/>
</g>
</svg>
