<?xml version="1.0" encoding="utf-8"?>
<!-- Generator: Adobe Illustrator 17.0.0, SVG Export Plug-In . SVG Version: 6.00 Build 0)  -->
<!DOCTYPE svg PUBLIC "-//W3C//DTD SVG 1.1//EN" "http://www.w3.org/Graphics/SVG/1.1/DTD/svg11.dtd">
<svg version="1.1" id="Calque_1" xmlns="http://www.w3.org/2000/svg" xmlns:xlink="http://www.w3.org/1999/xlink" x="0px" y="0px"
	 width="276.9px" height="247px" viewBox="0 0 276.9 247" enable-background="new 0 0 276.9 247" xml:space="preserve">
<g>
	<circle fill="#FFFFFF" cx="68.7" cy="51.3" r="51.3"/>
	<path d="M120,51.3c0,0-0.1,1.3-0.2,3.6c0,0.6,0,1.3-0.1,2c-0.1,0.7-0.2,1.5-0.4,2.3c-0.1,0.8-0.2,1.8-0.4,2.7c-0.2,1-0.5,2-0.8,3
		c-1.2,4.2-3.1,9.3-6.5,14.4c-3.4,5.1-8.1,10.4-14.4,14.6c-6.3,4.2-14.1,7.3-22.7,8.3c-1.1,0.2-2.2,0.1-3.3,0.2
		c-0.5,0-1.1,0.1-1.7,0.1l-0.8,0c-0.3,0-0.6,0-0.8,0c-2.2-0.1-4.5-0.1-6.7-0.6c-4.5-0.5-9-2-13.3-3.8c-1.1-0.5-2.1-1-3.2-1.5
		c-1.1-0.5-2.1-1.2-3.1-1.8L40,94c-0.5-0.3-1-0.7-1.5-1.1c-1-0.7-2-1.4-2.9-2.2c-3.7-3.1-7-6.9-9.8-11c-2.7-4.2-4.8-8.7-6.4-13.5
		c-1.4-4.8-2.1-9.9-2.2-14.9c0.1-5,0.8-10.1,2.2-14.9c1.5-4.8,3.6-9.4,6.4-13.5c2.8-4.1,6.1-7.8,9.8-11c0.9-0.8,1.9-1.5,2.9-2.2
		c0.5-0.4,1-0.7,1.5-1.1l1.5-0.9c1-0.6,2-1.3,3.1-1.8c1.1-0.5,2.1-1,3.2-1.5c4.3-1.8,8.8-3.3,13.3-3.8C63.5,0.1,65.7,0.1,68,0
		c0.3,0,0.6,0,0.8,0l0.8,0c0.6,0,1.1,0.1,1.6,0.1c1.1,0.1,2.2,0.1,3.3,0.2c8.6,1,16.4,4.1,22.7,8.3c6.3,4.2,11,9.5,14.4,14.6
		c3.4,5.1,5.3,10.2,6.5,14.4c0.3,1.1,0.5,2.1,0.8,3c0.2,1,0.3,1.9,0.4,2.7c0.1,0.8,0.2,1.6,0.4,2.3c0.1,0.7,0.1,1.4,0.1,2
		C120,50.1,120,51.3,120,51.3z M120,51.3c0,0-0.1-1.3-0.2-3.6c0-0.6,0-1.3-0.1-2c-0.1-0.7-0.2-1.5-0.4-2.3c-0.1-0.8-0.2-1.8-0.4-2.7
		c-0.2-1-0.5-2-0.8-3c-1.2-4.2-3.1-9.3-6.5-14.4c-3.4-5.1-8.1-10.3-14.4-14.5c-6.3-4.2-14.1-7.3-22.7-8.3c-1.1-0.2-2.2-0.1-3.3-0.2
		c-0.5,0-1.1-0.1-1.6-0.1l-0.8,0c-0.3,0-0.6,0-0.8,0c-2.2,0.1-4.5,0.1-6.7,0.6c-4.5,0.5-9,2-13.3,3.8c-1.1,0.5-2.1,1-3.2,1.5
		c-1.1,0.5-2,1.2-3.1,1.8l-1.5,0.9c-0.5,0.3-1,0.7-1.4,1.1c-1,0.7-2,1.4-2.9,2.2c-3.7,3.1-7,6.9-9.8,10.9c-2.7,4.1-4.8,8.7-6.3,13.5
		c-1.4,4.8-2.1,9.8-2.2,14.9c0.1,5,0.8,10,2.2,14.8c1.5,4.8,3.6,9.3,6.3,13.5c2.8,4.1,6.1,7.8,9.8,10.9c0.9,0.8,1.9,1.5,2.9,2.2
		c0.5,0.4,1,0.7,1.4,1.1l1.5,0.9c1,0.6,2,1.3,3.1,1.8c1.1,0.5,2.1,1,3.2,1.5c4.3,1.8,8.8,3.3,13.3,3.8c2.2,0.4,4.5,0.4,6.7,0.6
		c0.3,0,0.6,0,0.8,0l0.8,0c0.6,0,1.1-0.1,1.6-0.1c1.1-0.1,2.2-0.1,3.3-0.2c8.6-1,16.4-4.1,22.7-8.3c6.3-4.2,11-9.4,14.4-14.5
		c3.4-5.1,5.3-10.2,6.5-14.4c0.3-1.1,0.5-2.1,0.8-3c0.2-1,0.3-1.9,0.4-2.7c0.1-0.8,0.2-1.6,0.4-2.3c0.1-0.7,0.1-1.4,0.1-2
		C120,52.6,120,51.3,120,51.3z"/>
</g>
<circle cx="93.1" cy="60.3" r="26.9"/>
<g>
	<circle fill="#FFFFFF" cx="194.2" cy="51.3" r="51.3"/>
	<path d="M245.5,51.3c0,0-0.1,1.3-0.2,3.6c0,0.6,0,1.3-0.1,2c-0.1,0.7-0.2,1.5-0.4,2.3c-0.1,0.8-0.2,1.8-0.4,2.7c-0.2,1-0.5,2-0.8,3
		c-1.2,4.2-3.1,9.3-6.5,14.4c-3.4,5.1-8.1,10.4-14.4,14.6c-6.3,4.2-14.1,7.3-22.7,8.3c-1.1,0.2-2.2,0.1-3.3,0.2
		c-0.5,0-1.1,0.1-1.7,0.1l-0.8,0c-0.3,0-0.6,0-0.8,0c-2.2-0.1-4.5-0.1-6.7-0.6c-4.5-0.5-9-2-13.3-3.8c-1.1-0.5-2.1-1-3.2-1.5
		c-1.1-0.5-2.1-1.2-3.1-1.8l-1.5-0.9c-0.5-0.3-1-0.7-1.5-1.1c-1-0.7-2-1.4-2.9-2.2c-3.7-3.1-7-6.9-9.8-11c-2.7-4.2-4.8-8.7-6.4-13.5
		c-1.4-4.8-2.1-9.9-2.2-14.9c0.1-5,0.8-10.1,2.2-14.9c1.5-4.8,3.6-9.4,6.4-13.5c2.8-4.1,6.1-7.8,9.8-11c0.9-0.8,1.9-1.5,2.9-2.2
		c0.5-0.4,1-0.7,1.5-1.1l1.5-0.9c1-0.6,2-1.3,3.1-1.8c1.1-0.5,2.1-1,3.2-1.5c4.3-1.8,8.8-3.3,13.3-3.8c2.2-0.4,4.5-0.4,6.7-0.6
		c0.3,0,0.6,0,0.8,0l0.8,0c0.6,0,1.1,0.1,1.6,0.1c1.1,0.1,2.2,0.1,3.3,0.2c8.6,1,16.4,4.1,22.7,8.3c6.3,4.2,11,9.5,14.4,14.6
		c3.4,5.1,5.3,10.2,6.5,14.4c0.3,1.1,0.5,2.1,0.8,3c0.2,1,0.3,1.9,0.4,2.7c0.1,0.8,0.2,1.6,0.4,2.3c0.1,0.7,0.1,1.4,0.1,2
		C245.4,50.1,245.5,51.3,245.5,51.3z M245.5,51.3c0,0-0.1-1.3-0.2-3.6c0-0.6,0-1.3-0.1-2c-0.1-0.7-0.2-1.5-0.4-2.3
		c-0.1-0.8-0.2-1.8-0.4-2.7c-0.2-1-0.5-2-0.8-3c-1.2-4.2-3.1-9.3-6.5-14.4c-3.4-5.1-8.1-10.3-14.4-14.5c-6.3-4.2-14.1-7.3-22.7-8.3
		c-1.1-0.2-2.2-0.1-3.3-0.2c-0.5,0-1.1-0.1-1.6-0.1l-0.8,0c-0.3,0-0.6,0-0.8,0c-2.2,0.1-4.5,0.1-6.7,0.6c-4.5,0.5-9,2-13.3,3.8
		c-1.1,0.5-2.1,1-3.2,1.5c-1.1,0.5-2,1.2-3.1,1.8l-1.5,0.9c-0.5,0.3-1,0.7-1.4,1.1c-1,0.7-2,1.4-2.9,2.2c-3.7,3.1-7,6.9-9.8,10.9
		c-2.7,4.1-4.8,8.7-6.3,13.5c-1.4,4.8-2.1,9.8-2.2,14.8c0.1,5,0.8,10,2.2,14.8c1.5,4.8,3.6,9.3,6.3,13.5c2.8,4.1,6.1,7.8,9.8,10.9
		c0.9,0.8,1.9,1.5,2.9,2.2c0.5,0.4,1,0.7,1.4,1.1l1.5,0.9c1,0.6,2,1.3,3.1,1.8c1.1,0.5,2.1,1,3.2,1.5c4.3,1.8,8.8,3.3,13.3,3.8
		c2.2,0.4,4.5,0.4,6.7,0.6c0.3,0,0.6,0,0.8,0l0.8,0c0.6,0,1.1-0.1,1.6-0.1c1.1-0.1,2.2-0.1,3.3-0.2c8.6-1,16.4-4.1,22.7-8.3
		c6.3-4.2,11-9.4,14.4-14.5c3.4-5.1,5.3-10.2,6.5-14.4c0.3-1.1,0.5-2.1,0.8-3c0.2-1,0.3-1.9,0.4-2.7c0.1-0.8,0.2-1.6,0.4-2.3
		c0.1-0.7,0.1-1.4,0.1-2C245.4,52.6,245.5,51.3,245.5,51.3z"/>
</g>
<circle cx="169.7" cy="45.6" r="26.9"/>
<g>
	<g>
		<path fill="#09090A" d="M0,139.9c0,0,150,80.9,272.7-7.5C272.7,132.3,136.3,382.6,0,139.9z"/>
		<path fill="#09090A" d="M0,139.9c5.3,2.7,10.8,5.1,16.3,7.4c5.5,2.3,11.1,4.4,16.7,6.4c2.8,1,5.6,2,8.5,2.9l4.3,1.4l4.3,1.3
			l4.3,1.3l4.3,1.2l4.3,1.1l4.3,1l4.3,1l4.4,0.9l4.4,0.9l4.4,0.8c2.9,0.5,5.9,1.1,8.8,1.5l4.4,0.7c1.5,0.2,2.9,0.5,4.4,0.6l8.9,1
			l8.9,0.7c3,0.2,5.9,0.3,8.9,0.4c3,0.2,5.9,0.2,8.9,0.2c3,0,5.9,0.1,8.9-0.1c3-0.1,5.9-0.2,8.9-0.4l8.9-0.8c1.5-0.1,3-0.3,4.4-0.5
			l4.4-0.6l4.4-0.6l4.4-0.8l4.4-0.8c1.5-0.3,2.9-0.5,4.4-0.9l8.7-2.1c0.7-0.2,1.4-0.3,2.2-0.5l2.1-0.6l4.3-1.3l4.3-1.3
			c1.4-0.4,2.8-1,4.2-1.5l8.4-3l8.2-3.5c1.4-0.6,2.7-1.2,4.1-1.8l4-2c2.6-1.4,5.3-2.6,7.9-4.1l7.7-4.5c1.3-0.8,2.6-1.5,3.8-2.3
			l3.7-2.5l7.4-5l5-3.4l-2.9,5.3c-3.8,6.7-7.8,13.2-12.1,19.5c-4.3,6.4-8.7,12.6-13.4,18.6c-9.4,12.1-19.6,23.6-30.8,34.1
			c-11.2,10.5-23.4,19.9-36.9,27.4c-6.7,3.7-13.8,6.9-21.1,9.3c-7.3,2.4-14.9,4.1-22.6,4.8c-7.7,0.7-15.5,0.3-23.1-1
			c-7.6-1.3-15-3.6-22.1-6.7l-2.6-1.2c-0.9-0.4-1.8-0.8-2.6-1.2l-5.1-2.7c-3.3-2-6.6-3.9-9.7-6.2l-2.4-1.6c-0.8-0.5-1.5-1.2-2.3-1.7
			l-4.5-3.5c-2.9-2.5-5.9-4.9-8.6-7.6c-1.4-1.3-2.8-2.6-4.2-4l-4-4.1l-2-2.1L42,201l-3.8-4.3c-2.4-2.9-4.9-5.9-7.2-8.9
			c-2.3-3.1-4.6-6.1-6.8-9.2l-3.3-4.7c-1.1-1.6-2.2-3.1-3.2-4.7l-3.1-4.8c-1-1.6-2.1-3.2-3.1-4.8c-2-3.3-4-6.5-5.9-9.8L0,139.9z
			 M0,139.9l5.8,9.8c2,3.3,4.1,6.4,6.1,9.7c1,1.6,2.1,3.2,3.1,4.8l3.2,4.7c1,1.6,2.2,3.1,3.3,4.7l3.3,4.6c2.2,3.1,4.6,6,7,9
			c2.4,2.9,4.9,5.8,7.3,8.7l3.8,4.2l1.9,2.1l2,2l4,4c1.4,1.3,2.8,2.6,4.2,3.9c2.7,2.6,5.7,5,8.6,7.4l4.5,3.4
			c0.8,0.6,1.5,1.2,2.3,1.7l2.4,1.6c3.1,2.2,6.4,4,9.6,6l5,2.6c0.8,0.5,1.7,0.8,2.6,1.2l2.6,1.1c6.9,2.9,14.2,5.1,21.6,6.3
			c7.4,1.2,15,1.4,22.5,0.7c7.5-0.7,14.9-2.3,22-4.7c7.1-2.4,14-5.5,20.6-9.2c13.2-7.3,25.2-16.7,36.2-27.1
			c11-10.4,21.1-21.8,30.3-33.8c4.6-6,9.1-12.1,13.3-18.4c4.2-6.3,8.3-12.7,12-19.3l2.1,1.8l-7.5,5l-3.7,2.5
			c-1.3,0.8-2.6,1.5-3.9,2.3l-7.8,4.5c-2.6,1.4-5.4,2.7-8,4.1l-4,2c-1.4,0.6-2.8,1.2-4.1,1.8l-8.3,3.5l-8.5,3
			c-1.4,0.5-2.8,1.1-4.3,1.5l-4.3,1.3l-4.3,1.3l-2.2,0.6c-0.7,0.2-1.5,0.4-2.2,0.5l-8.8,2.1c-1.5,0.4-2.9,0.6-4.4,0.9l-4.4,0.8
			l-4.4,0.8l-4.5,0.6l-4.5,0.6c-1.5,0.2-3,0.4-4.5,0.5l-9,0.7c-3,0.2-6,0.2-9,0.3c-3,0.1-6,0.1-9,0c-3,0-6,0-9-0.3
			c-3-0.2-6-0.3-9-0.5l-8.9-0.8l-8.9-1.1c-1.5-0.2-3-0.4-4.4-0.7l-4.4-0.7c-3-0.4-5.9-1-8.8-1.6l-4.4-0.9l-4.4-1l-4.4-1L67,165
			l-4.3-1.1l-4.3-1.2l-4.3-1.2l-4.3-1.3l-4.3-1.3l-4.2-1.4c-2.8-0.9-5.6-2-8.4-3c-5.6-2.1-11.2-4.3-16.6-6.7
			C10.7,145.2,5.3,142.7,0,139.9z"/>
	</g>
</g>
</svg>
