<?xml version="1.0" encoding="utf-8"?>
<!-- Generator: Adobe Illustrator 17.0.0, SVG Export Plug-In . SVG Version: 6.00 Build 0)  -->
<!DOCTYPE svg PUBLIC "-//W3C//DTD SVG 1.1//EN" "http://www.w3.org/Graphics/SVG/1.1/DTD/svg11.dtd">
<svg version="1.1" id="Calque_1" xmlns="http://www.w3.org/2000/svg" xmlns:xlink="http://www.w3.org/1999/xlink" x="0px" y="0px"
	 width="69.1px" height="74.4px" viewBox="0 0 69.1 74.4" enable-background="new 0 0 69.1 74.4" xml:space="preserve">
<g>
	<path fill="#9B6632" d="M68.5,40.5c-0.2,0.1,0-4,0-4s-1.6,0.1-1.6,0c0-0.1-1-1.4-1-1.4v-2.2l-2.5-1.7c0,0-4.8,0-5-1.7
		c-0.2-1.7,0.1-1.9,0.1-1.9l0.6-0.4c0,0,1.4,0.8,0.8,0c-0.6-0.8,0-2.7,0-2.7h-0.9l-2.2-1h-1.1l1.1-2.3c0,0,0.3,0.3,0.9-0.2
		c0.5-0.5,0.1-0.4,0.1-0.2v-1.2h-0.7h-0.9h-1.5l0.2-3c0,0-0.2,0,0.8,0s0-2.6,0-2.6l-0.2,1.6H54l0.3-2.9c0,0,0-0.3,1.2-0.9l2.2-0.7
		l-0.9-1.3l-1.3-1.1l1-0.9l0.1-1.4c0,0,0,0-0.8-1c-0.8-1,2.1-3.1,2.7-3.1c0.3,0,0.3-0.4,0.3-0.8c-3.7-1-8-1.4-8.5-1.4
		c-0.9,0-15.5,1.1-16,0.9c-0.5-0.2-6.9-0.8-9.4,0.6c-2.5,1.4-11,8.7-11.8,10.2c-0.8,1.5-2.3,1-3.1,1.5c-0.8,0.5-5.5,9.2-6.7,12.4
		c-1.2,3.2-3.8,13.2-3.4,16.7C0.5,45.9,5,64,9.3,66.7c1,0.6,1.6,1,1.9,1.1c-0.1,0.1-0.1,0.2,0.1,0.6c0.8,1.7,4.4,2.9,7.4,4
		c2.9,1.1,9.7,2.6,13.5,1.8c3.8-0.8,5.4-1.7,6.3-1.7c0.9,0,3.2-0.5,5.8-1.4s3.1-2.5,4.4-2.5c1.4,0,6-4.8,6.6-5.7
		c0.6-0.9,2.8-1.4,3.2-1.4c0.5,0,6.4-2.5,7.1-4.9c0.6-2.5,3.5-9.4,3.5-13.5c0-1.2,0-2.2-0.1-3.1C68.7,40.4,68.5,40.5,68.5,40.5z"/>
	<path d="M49.8,61.8c0,0,1.6-3.4,0-4.8c-1.6-1.4-2.5-0.9-3.7-1.8c-1.2-0.9-2.5-1.9-4.8,0c-1.9,1.5-2.3,3.9-2.3,3.9s1,5.2,3.8,4.8
		C45.6,63.5,49.8,62.3,49.8,61.8z"/>
	<path d="M39.4,38.2c0,0-2.8-0.9-2.1-2.3c1.7-3.7,3.7-1.4,3.7-1.4S42.2,38.2,39.4,38.2z"/>
	<path d="M34.6,13.3c0,0-4.3,1.6-3.7,0.3c1.5-3.6,5.9-2.8,5.9-2.8S37,13.3,34.6,13.3z"/>
	<path d="M56.9,33.8c0,0,3,0.2,3,0.9s1,1.3,1,1.3v2.2c0,0,2.5-3.5,1.8-3.5s-2.5,0-2.8-0.9S57.6,32.2,56.9,33.8z"/>
	<path d="M17.6,48.1c0,0-1.6-1.6-1.6-2.7c0-1.1-1-0.9-1.4-0.9s-1.2,0-1.2,0s-0.2,1.7,0.8,2.7C15.1,48.3,16.6,48.5,17.6,48.1z"/>
</g>
</svg>
